<svg id="Layer_1" data-name="Layer 1" xmlns="http://www.w3.org/2000/svg" viewBox="0 0 438.29 468.99"><defs><style>.cls-1{fill:#dd3216;}.cls-15,.cls-2{fill:#fff;}.cls-3{fill:#cee3ed;}.cls-4{fill:#c1dbe5;}.cls-5{fill:#d5ecfa;}.cls-6{fill:#cce6f2;}.cls-7{fill:#c51007;}.cls-8{fill:#ffc403;}.cls-9{fill:#f1a900;}.cls-10{fill:#f5d260;}.cls-11{fill:#ecbe4b;}.cls-12{fill:#d4eefd;}.cls-13{fill:#e9f8ff;}.cls-14{fill:#980316;}.cls-15{font-size:90px;font-family:Ceviche One;}</style></defs><title>space-rocket-launch</title><path class="cls-1" d="M459.42,412.71s65.42,38,29.09,112.17c0,0-18.85-57.74-55.57-56.74Z" transform="translate(-191 -207.34)"/><path class="cls-1" d="M340.58,412.71s-65.42,38-29.09,112.17c0,0,18.85-57.74,55.57-56.74Z" transform="translate(-191 -207.34)"/><path class="cls-2" d="M484,302.73C481.88,287,477.66,270.83,469.6,257c-13-22.24-38.51-49.5-66.23-49.7-29.88-.22-56,29.44-68.81,53.85-11.09,21.09-17.21,40.2-16,63.42a265,265,0,0,0,14.63,74.85c18,50.7,20.33,99.15,69.64,96.62,49.31,2.53,51.62-45.92,69.64-96.62C483.11,369.53,488.36,334.79,484,302.73Z" transform="translate(-191 -207.34)"/><path class="cls-3" d="M333.78,401.16h138.1l0.6-1.7q0.89-2.52,1.73-5.08H331.44q0.84,2.55,1.74,5.08Z" transform="translate(-191 -207.34)"/><path class="cls-4" d="M405.3,394.38v6.78h66.57l0.6-1.7q0.89-2.52,1.73-5.08H405.3Z" transform="translate(-191 -207.34)"/><path class="cls-5" d="M470.35,258.38c-0.25-.45-0.49-0.9-0.75-1.34-13-22.24-38.51-49.5-66.23-49.7-28.74-.21-54,27.22-67.27,51H470.35Z" transform="translate(-191 -207.34)"/><path class="cls-4" d="M404.64,258.38h65.71c-0.25-.45-0.5-0.9-0.76-1.34-12.83-21.73-37.71-48.22-65-49.63v51Z" transform="translate(-191 -207.34)"/><path class="cls-5" d="M333.78,401.16c17.49,50.08,20.29,97.43,69,94.92,48.76,2.5,51.56-44.84,69-94.92H333.78Z" transform="translate(-191 -207.34)"/><path class="cls-6" d="M405.3,401.16v95c46.38,0.79,49.39-45.79,66.57-95H405.3Z" transform="translate(-191 -207.34)"/><path class="cls-1" d="M466.22,251.6c-13.74-21-37.36-44.07-62.85-44.26-26-.19-49.2,22.31-63.22,44.26H466.22Z" transform="translate(-191 -207.34)"/><path class="cls-7" d="M404.64,251.6h61.59c-13.51-20.66-36.58-43.29-61.59-44.21V251.6Z" transform="translate(-191 -207.34)"/><path class="cls-8" d="M396,517.36H415s13.12,45.62-9.53,75.3C405.51,592.66,382.85,565.79,396,517.36Z" transform="translate(-191 -207.34)"/><path class="cls-9" d="M405.64,592.49c22.47-29.69,9.4-75.13,9.4-75.13h-9.4v75.13Z" transform="translate(-191 -207.34)"/><path class="cls-10" d="M399.23,523.4h12.46s8.58,29.81-6.23,49.21C405.46,572.61,390.65,555.05,399.23,523.4Z" transform="translate(-191 -207.34)"/><path class="cls-11" d="M411.68,523.4H405.3v49l0.15,0.19C420.26,553.22,411.68,523.4,411.68,523.4Z" transform="translate(-191 -207.34)"/><path class="cls-1" d="M423.89,463.3c-0.49-46.92-14.8-58-18.39-60v-0.14l-0.12.07-0.12-.07v0.14c-3.59,2-17.9,13.12-18.39,60-0.41,38.56-.28,53.5-0.18,58.85,0,2.1,2.66,2.73,2.66,2.73h31.38s3.22-.72,3.28-3.22C424.13,515.91,424.28,500.73,423.89,463.3Z" transform="translate(-191 -207.34)"/><path class="cls-7" d="M423.89,463.3c-0.49-46.92-14.8-58-18.39-60v-0.14l-0.12.07-0.06,0V524.88h15.42s3.22-.72,3.28-3.22C424.13,515.91,424.28,500.73,423.89,463.3Z" transform="translate(-191 -207.34)"/><circle class="cls-12" cx="212.52" cy="113.11" r="28.81"/><path class="cls-13" d="M391.91,321.49a61,61,0,0,1,35.39-17.3,28.81,28.81,0,1,0-46.91,33.45A60.62,60.62,0,0,1,391.91,321.49Z" transform="translate(-191 -207.34)"/><path class="cls-14" d="M403.52,274.48a46,46,0,1,0,46,46A46,46,0,0,0,403.52,274.48Zm0,75a29,29,0,1,1,29-29A29,29,0,0,1,403.52,349.46Z" transform="translate(-191 -207.34)"/><path class="cls-14" d="M403.52,281.4a39.05,39.05,0,1,0,39.05,39.05A39,39,0,0,0,403.52,281.4Zm0,63.69a24.64,24.64,0,1,1,24.64-24.64A24.64,24.64,0,0,1,403.52,345.09Z" transform="translate(-191 -207.34)"/><path class="cls-1" d="M403.52,275.75a44.7,44.7,0,1,0,44.7,44.7A44.7,44.7,0,0,0,403.52,275.75Zm0,72.91a28.21,28.21,0,1,1,28.21-28.21A28.21,28.21,0,0,1,403.52,348.66Z" transform="translate(-191 -207.34)"/><path class="cls-7" d="M404.14,275.76v16.49a28.2,28.2,0,0,1,0,56.38v16.49A44.69,44.69,0,0,0,404.14,275.76Z" transform="translate(-191 -207.34)"/><text class="cls-15" transform="translate(0 447.66)">N<tspan x="49.32" y="0">e</tspan><tspan x="85.32" y="0">ver give up</tspan></text></svg>